<svg width="96" height="96" viewBox="0 0 96 96" fill="none" xmlns="http://www.w3.org/2000/svg">
<path fill-rule="evenodd" clip-rule="evenodd" d="M47.2317 82.7564C45.7036 81.2269 45.586 78.8203 46.8791 77.1559L47.2331 76.7549L71.9784 52.0108L15.9986 52.0108C13.7902 52.0108 12 50.2191 12 48.0089C12 45.7987 13.7902 44.007 15.9986 44.007L71.9784 44.007L47.2321 19.2458C45.7032 17.716 45.5854 15.3086 46.8787 13.6435L47.2318 13.2433C48.888 11.5857 51.5734 11.5855 53.2298 13.2431L81.1863 41.2181C84.7665 44.7954 84.9297 50.499 81.6779 54.2726L81.1847 54.7981L53.2306 82.7573C51.5736 84.4146 48.8882 84.4142 47.2317 82.7564Z" fill="#E93460"/>
</svg>
