<svg width="96" height="96" viewBox="0 0 96 96" fill="none" xmlns="http://www.w3.org/2000/svg">
<path fill-rule="evenodd" clip-rule="evenodd" d="M48.7683 13.2436C50.2964 14.7731 50.414 17.1797 49.1209 18.8441L48.7669 19.2451L24.0216 43.9892H80.0014C82.2098 43.9892 84 45.7809 84 47.9911C84 50.2013 82.2098 51.993 80.0014 51.993H24.0216L48.7679 76.7542C50.2968 78.284 50.4146 80.6914 49.1213 82.3565L48.7683 82.7567C47.112 84.4143 44.4266 84.4145 42.7702 82.7569L14.8137 54.7819C11.2335 51.2046 11.0703 45.501 14.3221 41.7274L14.8153 41.2019L42.7694 13.2427C44.4264 11.5854 47.1118 11.5858 48.7683 13.2436Z" fill="#FFFFFF"/>
</svg>
