<svg width="48" height="48" viewBox="0 0 48 48" fill="none" xmlns="http://www.w3.org/2000/svg">
<g id="Icon">
<path id="Union" fill-rule="evenodd" clip-rule="evenodd" d="M20 6C12.268 6 6 12.268 6 20C6 27.732 12.268 34 20 34C23.1447 34 26.0472 32.9632 28.3843 31.2128L36.5858 39.4142C37.3668 40.1953 38.6332 40.1953 39.4142 39.4142C40.1953 38.6332 40.1953 37.3668 39.4142 36.5858L31.2128 28.3843C32.9632 26.0472 34 23.1447 34 20C34 12.268 27.732 6 20 6ZM10 20C10 14.4772 14.4772 10 20 10C25.5228 10 30 14.4772 30 20C30 25.5228 25.5228 30 20 30C14.4772 30 10 25.5228 10 20Z" fill="#E93460"/>
</g>
</svg>
